<svg id="圖層_1" data-name="圖層 1" xmlns="http://www.w3.org/2000/svg" viewBox="0 0 29.14 39.72"><defs><style>.cls-1{fill:#f9f9fb;}</style></defs><title>工作區域 1</title><g id="Logo"><path id="Shape" class="cls-1" d="M16.77,22.52A15.13,15.13,0,0,1,9.62,27c-2.18.69-4.4,1.26-6.6,1.88H3q-.34-.92-.61-1.89c1.16-.3,2.3-.58,3.44-.9a29.47,29.47,0,0,0,5.95-2.13,10.09,10.09,0,0,0,5.37-6.11,7.39,7.39,0,0,0,0-4.62,2.48,2.48,0,0,0-3.13-1.8,2.29,2.29,0,0,0-1.82,1.83c-.16.72-.25,1.45-.43,2.16a7,7,0,0,1-5.12,5.34,15.7,15.7,0,0,1-5.1.56c0-.4,0-.8,0-1.2,0-.24,0-.47,0-.71,1-.07,2-.12,3-.23A10.59,10.59,0,0,0,6,18.84a5.23,5.23,0,0,0,3.87-4.55c.07-.38.13-.75.2-1.13A4.42,4.42,0,0,1,15.5,9.45a4.46,4.46,0,0,1,3.69,3.89A10.19,10.19,0,0,1,16.77,22.52Z"/><path id="Shape-2" data-name="Shape" class="cls-1" d="M27.7,23.1c-.05.46-.12.91-.2,1.36,0,.2-.07.41-.11.62A5.3,5.3,0,0,1,22,22.29,12.73,12.73,0,0,1,21,17.74c-.18-1.86-.27-3.74-.61-5.58a5.07,5.07,0,0,0-3.91-4.3c-3.4-.87-6.55.47-7.93,3.43-.29.62-.39,1.32-.62,2a24.16,24.16,0,0,1-1,2.49,3,3,0,0,1-2.34,1.6,8.9,8.9,0,0,1-3.13-.07q.1-1,.27-1.93c.44,0,.88.08,1.31.09a8.12,8.12,0,0,0,1.06,0,1.29,1.29,0,0,0,1.19-.84c.31-.86.65-1.71.87-2.59A8.34,8.34,0,0,1,15,5.64a8.06,8.06,0,0,1,5,1.82,8,8,0,0,1,2.57,5.09c.25,1.77.3,3.57.51,5.35a16.45,16.45,0,0,0,.61,3,3.17,3.17,0,0,0,3.18,2.28Z"/><path id="Shape-3" data-name="Shape" class="cls-1" d="M27.7,19.92v.57c0,.29,0,.58,0,.86A3.65,3.65,0,0,1,25.44,20a5.85,5.85,0,0,1-.9-3.17,25.51,25.51,0,0,0-.86-6.18,9.34,9.34,0,0,0-17-2.11,18.12,18.12,0,0,0-1.88,4l-1.31.78-.53-1.5c.22-.6.43-1.2.68-1.78A13.64,13.64,0,0,1,7.29,4.68C11.77,1,19.41.17,24.08,6.95a13.51,13.51,0,0,1,2.16,6.3c.17,1.45.23,2.92.4,4.37a1.9,1.9,0,0,0,1.05,1.7C27.69,19.52,27.7,19.72,27.7,19.92Z"/><path id="Shape-4" data-name="Shape" class="cls-1" d="M25.45,31c-.13.27-.26.54-.4.81s-.29.53-.44.79c-.7-.49-1.57-1.1-2.26-1.55a12.2,12.2,0,0,0-3.93-1.7,8.65,8.65,0,0,0-4.34.33c-3.17.91-6.32,1.88-9.48,2.83h0C4.25,32,4,31.44,3.7,30.86c.9-.3,1.77-.61,2.66-.87,2.77-.79,5.55-1.58,8.33-2.33a9.4,9.4,0,0,1,6.4.63A18.46,18.46,0,0,1,25.45,31Z"/><path id="Shape-5" data-name="Shape" class="cls-1" d="M16.36,14.51a2,2,0,0,0-1.91-1.4,2,2,0,0,0-1.9,1.4,2.07,2.07,0,0,0,.66,2.22l-.93,1.47a7.51,7.51,0,0,1-4.06,3.23c-1.38.46-2.78.86-4.19,1.25-.86.23-1.72.43-2.58.63.07.61.17,1.21.28,1.8l.23,0c1.76-.45,3.52-.86,5.27-1.36a11.89,11.89,0,0,0,4.9-2.46,15.87,15.87,0,0,0,2.81-3.81,2.3,2.3,0,0,1,.63-.68A2,2,0,0,0,16.36,14.51ZM14.5,15.79a.71.71,0,1,1,.51-.21A.71.71,0,0,1,14.5,15.79Z"/><path id="Shape-6" data-name="Shape" class="cls-1" d="M23.95,33.88q-.28.41-.58.8a.89.89,0,0,0-.14.17l-.41.5A11,11,0,0,0,17.33,33a9.72,9.72,0,0,0-4.25.49c-2,.62-3.91,1.35-5.87,2l-.15.06q-.49-.55-.95-1.17L5.95,34c1.11-.44,2.17-.89,3.25-1.28a23,23,0,0,1,6.6-1.62,11.46,11.46,0,0,1,8,2.62A1.11,1.11,0,0,0,23.95,33.88Z"/><path id="Shape-7" data-name="Shape" class="cls-1" d="M20.95,36.58q-.36.29-.72.54a10.39,10.39,0,0,1-1.07.66l-1.4-.58a8.73,8.73,0,0,0-6,.16l-1.57.5a11.53,11.53,0,0,1-2-1.31c1.15-.38,2.26-.78,3.39-1.09a18.19,18.19,0,0,1,2.66-.54A11.08,11.08,0,0,1,20.95,36.58Z"/><path id="Shape-8" data-name="Shape" class="cls-1" d="M26.95,27.72c-.08.3-.17.59-.26.87h0a1.21,1.21,0,0,0-.08.24l-.27.77c-2.93-.87-5.64-2-7.49-4.47l-.14-1.53,1.6.17C21.9,26,24.45,26.94,26.95,27.72Z"/></g></svg>